<?xml version="1.0" encoding="UTF-8"?>
<svg id="Ebene_2" xmlns="http://www.w3.org/2000/svg" width="41.72cm" height="15.31cm" version="1.1" viewBox="0 0 1182.52 433.95">
  <!-- Generator: Adobe Illustrator 30.5.1, SVG Export Plug-In . SVG Version: 2.1.4 Build 3)  -->
  <defs>
    <style>
      .st0 {
        fill: none;
      }

      .st0, .st1 {
        stroke-linecap: round;
        stroke-linejoin: round;
        stroke-width: 5px;
      }

      .st0, .st1, .st2 {
        stroke: #16355b;
      }

      .st3 {
        fill: #16355b;
      }

      .st1, .st2 {
        fill: #fff;
      }

      .st2 {
        stroke-miterlimit: 10;
      }
    </style>
  </defs>
  <rect class="st0" x="100.1" y="220.26" width="212.33" height="30.06" rx="4.61" ry="4.61"/>
  <path class="st0" d="M93.05,423.12v-8.31c0-1.86,1.5-3.36,3.36-3.36h218.85c1.86,0,3.36,1.5,3.36,3.36v8.31"/>
  <rect class="st0" x="144.92" y="373.08" width="125.31" height="13.37" rx="2.36" ry="2.36"/>
  <rect class="st0" x="115.6" y="258.78" width="15.97" height="150.32"/>
  <g>
    <line class="st0" x1="119.59" y1="258.78" x2="119.59" y2="250.32"/>
    <line class="st0" x1="127.58" y1="250.32" x2="127.58" y2="258.78"/>
  </g>
  <g>
    <line class="st0" x1="154.39" y1="410.11" x2="154.39" y2="387.93"/>
    <line class="st0" x1="262.39" y1="387.93" x2="262.39" y2="410.11"/>
  </g>
  <g>
    <line class="st0" x1="287.77" y1="258.78" x2="287.77" y2="250.32"/>
    <line class="st0" x1="295.75" y1="250.32" x2="295.75" y2="258.78"/>
  </g>
  <g>
    <line class="st0" x1="372.96" y1="411.34" x2="372.96" y2="292.62"/>
    <line class="st0" x1="380.95" y1="292.62" x2="380.95" y2="411.34"/>
  </g>
  <rect class="st0" x="283.77" y="258.78" width="15.97" height="150.32"/>
  <path class="st0" d="M356.89,423.21v-9.12c0-1.45,1.18-2.63,2.63-2.63h33.96c1.45,0,2.63,1.18,2.63,2.63v9.12"/>
  <path class="st0" d="M267.79,219.38c.87-15.32-3.84-23.34-10.14-30.29,19.63-12.45,32.68-34.37,32.68-59.34,0-27.51-15.82-51.31-38.86-62.84-.11-31.08-25.33-56.24-56.43-56.24s-56.44,25.27-56.44,56.44c0,4.88.62,9.61,1.78,14.12-24.98,8.01-43.07,31.41-43.07,59.05s19.28,52.54,45.51,59.77c-5.47,5.7-9.71,12.57-12.32,20.21"/>
  <line class="st0" x1="196.37" y1="220.26" x2="196.37" y2="81.38"/>
  <line class="st0" x1="196.37" y1="150.82" x2="229.02" y2="119.53"/>
  <polyline class="st0" points="158.1 145.87 196.37 182.78 225.52 155.87"/>
  <line class="st0" x1="196.37" y1="122.31" x2="184.68" y2="110.98"/>
  <line class="st0" x1="455.96" y1="280.84" x2="455.96" y2="141.96"/>
  <line class="st0" x1="455.96" y1="211.4" x2="488.61" y2="180.11"/>
  <polyline class="st0" points="417.69 206.45 455.96 243.36 485.11 216.45"/>
  <line class="st0" x1="455.96" y1="182.88" x2="444.27" y2="171.56"/>
  <line class="st0" x1="1161.2" y1="423.2" x2="1166.35" y2="423.2"/>
  <line class="st0" x1="1128.72" y1="423.2" x2="1147.73" y2="423.2"/>
  <line class="st0" x1="1080.79" y1="423.2" x2="1102.18" y2="423.2"/>
  <line class="st0" x1="1032.87" y1="423.2" x2="1058.61" y2="423.2"/>
  <line class="st0" x1="12.35" y1="423.12" x2="1017.03" y2="423.19"/>
  <path class="st0" d="M113.97,289.01c-15.97,3.27-29.76,17.4-29.76,34.34,0,2.17.21,4.29.58,6.35-15.8,3.4-27.65,17.44-27.65,34.26,0,3.6.54,7.07,1.55,10.34-17.39,2.07-30.88,16.85-30.88,34.8,0,4.84.98,9.45,2.75,13.64"/>
  <path class="st0" d="M384.87,266.67c-1.1-7.61-1.68-16.19-1.68-25.85,0-74.26,34.14-184.47,76.24-184.47s76.24,110.21,76.24,184.47c0,49.32-18.69,70.38-41.13,78.97"/>
  <path class="st0" d="M494.55,333.64c0-29.16-23.64-52.81-52.81-52.81-11.07,0-21.33,3.41-29.82,9.23-10.72-15.46-28.59-25.6-48.83-25.6s-38.58,10.39-49.25,26.19"/>
  <path class="st0" d="M903.7,417.29c0-15.35-12.44-27.79-27.79-27.79-.95,0-1.88.05-2.8.14-.8-6.15-6.04-10.9-12.4-10.9-.05,0-.09,0-.14,0,.09-.91.14-1.83.14-2.76,0-15.35-12.44-27.79-27.79-27.79"/>
  <path class="st0" d="M752.87,325.56c-23.21-14.64-53.9-7.69-68.54,15.53-.9,1.43-1.72,2.89-2.46,4.38-10.06-4.66-22.24-1.26-28.31,8.36-.04.07-.08.14-.12.21-1.29-1-2.63-1.95-4.04-2.84-23.21-14.64-53.9-7.69-68.54,15.53"/>
  <rect class="st1" x="349.84" y="229.22" width="53.33" height="63.4" rx="10.23" ry="10.23"/>
  <path class="st3" d="M391.61,274.8h-29.6v-27.28c0-2.96,2.4-5.37,5.37-5.37h18.87c2.96,0,5.37,2.4,5.37,5.37v27.28Z"/>
  <line class="st0" x1="366.41" y1="279.96" x2="366.41" y2="274.66"/>
  <line class="st0" x1="388.02" y1="279.96" x2="388.02" y2="274.66"/>
  <rect class="st3" x="360.04" y="253.21" width="3.74" height="6.99" rx="1.87" ry="1.87"/>
  <rect class="st3" x="389.74" y="253.21" width="3.74" height="6.99" rx="1.87" ry="1.87"/>
  <rect class="st2" x="365.64" y="252.48" width="22.35" height="11.05"/>
  <path class="st2" d="M369.22,246.22h14.81c1.1,0,2,.89,2,2v1.71h-18.8v-1.71c0-1.1.89-2,2-2Z"/>
  <circle class="st2" cx="367.92" cy="269.4" r="2.14"/>
  <circle class="st2" cx="385.33" cy="269.4" r="2.14"/>
  <line class="st0" x1="131.57" y1="264.47" x2="283.77" y2="264.47"/>
</svg>