<?xml version="1.0" encoding="UTF-8"?>
<svg xmlns="http://www.w3.org/2000/svg" viewBox="-5 195 264 131" width="264" height="131" role="img" aria-label="Praxis am Brunneck – Hausarztpraxis Ottobrunn">
  <g fill="#16355b">
    <g>
      <path d="M2.78,313.26h3.28v-5.22h2.67v13.16h-2.67v-5.68h-3.28v5.68H.11v-13.16h2.67v5.22Z"/>
      <path d="M13.87,321.19h-2.78l3.79-13.16h2.59l3.79,13.16h-2.78l-.63-2.5h-3.36l-.63,2.5ZM16.18,311.81l-1.14,4.63h2.29l-1.14-4.63Z"/>
      <path d="M23.55,315.87v-7.84h2.67v7.84c0,2.25.42,3.24,1.66,3.24s1.66-.99,1.66-3.24v-7.84h2.67v7.84c0,3.87-1.77,5.49-4.33,5.49s-4.33-1.62-4.33-5.49Z"/>
      <path d="M41.35,311.39c-.53-.78-1.11-1.28-1.89-1.28-.92,0-1.35.55-1.35,1.45,0,1.03.57,1.45,1.96,1.91,2.36.76,3.36,1.74,3.36,4.06,0,2.16-1.37,3.83-3.91,3.83-1.96,0-3.32-.63-4.35-2.16l2-1.41c.61.76,1.18,1.32,2.16,1.32,1.07,0,1.43-.67,1.43-1.47,0-.91-.42-1.43-2.08-1.96-2.21-.72-3.24-1.94-3.24-4.12s1.24-3.7,3.91-3.7c1.75,0,3.16.69,3.93,2.14l-1.93,1.39Z"/>
      <path d="M47.88,321.19h-2.78l3.79-13.16h2.59l3.79,13.16h-2.78l-.63-2.5h-3.36l-.63,2.5ZM50.19,311.81l-1.14,4.63h2.29l-1.14-4.63Z"/>
      <path d="M63.53,321.19l-1.93-5.17h-1.31v5.17h-2.67v-13.16h4.12c2.54,0,4.2,1.35,4.2,4.02,0,1.77-.71,2.94-1.83,3.51l2.23,5.63h-2.8ZM61.43,313.77c1.12,0,1.83-.34,1.83-1.72s-.71-1.76-1.83-1.76h-1.14v3.47h1.14Z"/>
      <path d="M75.65,308.03v1.75l-4.19,9.15h4.37v2.25h-7.46v-1.75l4.25-9.13h-4.25v-2.27h7.28Z"/>
      <path d="M86.02,308.03v2.27h-2.86v10.89h-2.67v-10.89h-2.86v-2.27h8.39Z"/>
      <path d="M91.22,316.55v4.63h-2.67v-13.16h4.12c2.54,0,4.2,1.39,4.2,4.21s-1.64,4.31-4.2,4.31h-1.45ZM92.21,314.31c1.43,0,1.98-.65,1.98-2.06,0-1.26-.55-1.95-1.98-1.95h-.99v4.01h.99Z"/>
      <path d="M105.45,321.19l-1.93-5.17h-1.31v5.17h-2.67v-13.16h4.12c2.54,0,4.2,1.35,4.2,4.02,0,1.77-.71,2.94-1.83,3.51l2.23,5.63h-2.8ZM103.35,313.77c1.12,0,1.83-.34,1.83-1.72s-.71-1.76-1.83-1.76h-1.14v3.47h1.14Z"/>
      <path d="M112.69,321.19h-2.78l3.79-13.16h2.59l3.79,13.16h-2.78l-.63-2.5h-3.36l-.63,2.5ZM115,311.81l-1.14,4.63h2.29l-1.14-4.63Z"/>
      <path d="M121.64,321.19l3.01-6.79-2.67-6.37h2.86l1.49,4.18,1.53-4.18h2.86l-2.69,6.37,3.01,6.79h-2.84l-1.87-4.46-1.83,4.46h-2.86Z"/>
      <path d="M136.47,321.19h-2.67v-13.16h2.67v13.16Z"/>
      <path d="M145.79,311.39c-.53-.78-1.11-1.28-1.89-1.28-.92,0-1.35.55-1.35,1.45,0,1.03.57,1.45,1.96,1.91,2.36.76,3.36,1.74,3.36,4.06,0,2.16-1.37,3.83-3.91,3.83-1.96,0-3.32-.63-4.35-2.16l2-1.41c.61.76,1.18,1.32,2.16,1.32,1.07,0,1.43-.67,1.43-1.47,0-.91-.42-1.43-2.08-1.96-2.21-.72-3.24-1.94-3.24-4.12s1.24-3.7,3.91-3.7c1.75,0,3.16.69,3.93,2.14l-1.93,1.39Z"/>
      <path d="M159.68,321.36c-2.63,0-4.35-1.76-4.35-5.82v-1.87c0-4.06,1.72-5.82,4.35-5.82s4.35,1.76,4.35,5.82v1.87c0,4.06-1.71,5.82-4.35,5.82ZM159.68,319.11c1.14,0,1.68-.93,1.68-3.57v-1.87c0-2.63-.53-3.56-1.68-3.56s-1.68.93-1.68,3.56v1.87c0,2.63.53,3.57,1.68,3.57Z"/>
      <path d="M174.49,308.03v2.27h-2.86v10.89h-2.67v-10.89h-2.86v-2.27h8.39Z"/>
      <path d="M184.47,308.03v2.27h-2.86v10.89h-2.67v-10.89h-2.86v-2.27h8.39Z"/>
      <path d="M190.89,321.36c-2.63,0-4.35-1.76-4.35-5.82v-1.87c0-4.06,1.72-5.82,4.35-5.82s4.35,1.76,4.35,5.82v1.87c0,4.06-1.71,5.82-4.35,5.82ZM190.89,319.11c1.14,0,1.68-.93,1.68-3.57v-1.87c0-2.63-.53-3.56-1.68-3.56s-1.68.93-1.68,3.56v1.87c0,2.63.53,3.57,1.68,3.57Z"/>
      <path d="M202.19,308.03c2.56,0,4.12,1.14,4.12,3.45,0,1.35-.55,2.27-1.33,2.8.99.51,1.68,1.49,1.68,3.13,0,2.04-1.2,3.78-4.12,3.78h-4.14v-13.16h3.79ZM200.94,313.24h1.18c1.09,0,1.53-.57,1.53-1.51s-.4-1.45-1.77-1.45h-.93v2.96ZM200.94,318.94h1.31c1.22,0,1.74-.65,1.74-1.74,0-1.22-.55-1.72-1.93-1.72h-1.12v3.45Z"/>
      <path d="M215.5,321.19l-1.93-5.17h-1.31v5.17h-2.67v-13.16h4.12c2.54,0,4.2,1.35,4.2,4.02,0,1.77-.71,2.94-1.83,3.51l2.23,5.63h-2.8ZM213.4,313.77c1.12,0,1.83-.34,1.83-1.72s-.71-1.76-1.83-1.76h-1.14v3.47h1.14Z"/>
      <path d="M221,315.87v-7.84h2.67v7.84c0,2.25.42,3.24,1.66,3.24s1.66-.99,1.66-3.24v-7.84h2.67v7.84c0,3.87-1.77,5.49-4.33,5.49s-4.33-1.62-4.33-5.49Z"/>
      <path d="M241.77,308.03v13.16h-2.23l-3.72-7.19v7.19h-2.67v-13.16h2.21l3.74,7.3v-7.3h2.67Z"/>
      <path d="M253.91,308.03v13.16h-2.23l-3.72-7.19v7.19h-2.67v-13.16h2.21l3.74,7.3v-7.3h2.67Z"/>
    </g>
    <g>
      <path d="M7.78,224.56v13.51H0v-38.35h12c7.39,0,12.23,4.06,12.23,12.28s-4.78,12.56-12.23,12.56h-4.22ZM10.67,218c4.17,0,5.78-1.89,5.78-6,0-3.67-1.61-5.67-5.78-5.67h-2.89v11.67h2.89Z"/>
      <path d="M48.29,238.06l-5.61-15.06h-3.83v15.06h-7.78v-38.35h12c7.39,0,12.23,3.95,12.23,11.73,0,5.17-2.06,8.56-5.34,10.23l6.5,16.4h-8.17ZM42.18,216.45c3.28,0,5.34-1,5.34-5s-2.06-5.11-5.34-5.11h-3.34v10.12h3.34Z"/>
      <path d="M68.41,238.06h-8.12l11.06-38.35h7.56l11.06,38.35h-8.11l-1.83-7.28h-9.78l-1.83,7.28ZM75.13,210.72l-3.34,13.51h6.67l-3.33-13.51Z"/>
      <path d="M93.52,238.06l8.78-19.79-7.78-18.56h8.34l4.34,12.17,4.45-12.17h8.34l-7.84,18.56,8.78,19.79h-8.28l-5.45-13-5.34,13h-8.34Z"/>
      <path d="M135.76,238.06h-7.78v-38.35h7.78v38.35Z"/>
      <path d="M161.93,209.5c-1.56-2.28-3.22-3.72-5.5-3.72-2.67,0-3.95,1.61-3.95,4.22,0,3,1.67,4.22,5.72,5.56,6.89,2.22,9.78,5.06,9.78,11.84,0,6.28-4,11.17-11.39,11.17-5.72,0-9.67-1.83-12.67-6.28l5.84-4.11c1.78,2.22,3.45,3.83,6.28,3.83,3.11,0,4.17-1.95,4.17-4.28,0-2.67-1.22-4.17-6.06-5.72-6.45-2.11-9.45-5.67-9.45-12s3.61-10.78,11.39-10.78c5.11,0,9.23,2,11.45,6.23l-5.61,4.06Z"/>
      <path d="M195.05,238.06h-8.12l11.06-38.35h7.56l11.06,38.35h-8.11l-1.83-7.28h-9.78l-1.83,7.28ZM201.78,210.72l-3.34,13.51h6.67l-3.33-13.51Z"/>
      <path d="M230.23,217.17v20.9h-7.78v-38.35h7.34l8.5,18.17,8.5-18.17h7.34v38.35h-7.78v-20.9l-5.61,11.78h-4.89l-5.61-11.78Z"/>
      <path d="M11.06,253.95c7.45,0,12,3.33,12,10.06,0,3.94-1.61,6.61-3.89,8.17,2.89,1.5,4.89,4.33,4.89,9.11,0,5.95-3.5,11-12,11H0v-38.35h11.06ZM7.39,269.13h3.45c3.17,0,4.45-1.67,4.45-4.39s-1.17-4.23-5.17-4.23h-2.72v8.61ZM7.39,285.74h3.83c3.56,0,5.06-1.89,5.06-5.06,0-3.56-1.61-5-5.61-5h-3.28v10.06Z"/>
      <path d="M49.13,292.3l-5.61-15.06h-3.83v15.06h-7.78v-38.35h12c7.39,0,12.23,3.95,12.23,11.73,0,5.17-2.06,8.56-5.34,10.23l6.5,16.4h-8.17ZM43.01,270.68c3.28,0,5.34-1,5.34-5s-2.06-5.11-5.34-5.11h-3.34v10.12h3.34Z"/>
      <path d="M64.46,276.8v-22.84h7.78v22.84c0,6.56,1.22,9.45,4.83,9.45s4.84-2.89,4.84-9.45v-22.84h7.78v22.84c0,11.28-5.17,16.01-12.62,16.01s-12.62-4.72-12.62-16.01Z"/>
      <path d="M124.31,253.95v38.35h-6.5l-10.84-20.95v20.95h-7.78v-38.35h6.45l10.89,21.29v-21.29h7.78Z"/>
      <path d="M158.99,253.95v38.35h-6.5l-10.84-20.95v20.95h-7.78v-38.35h6.45l10.89,21.29v-21.29h7.78Z"/>
      <path d="M188.77,253.95v6.56h-12.45v8.67h11.06v6.56h-11.06v10h12.45v6.56h-20.23v-38.35h20.23Z"/>
      <path d="M212.39,265.85c-.39-3.61-1.56-5.83-4.34-5.83-3.45,0-4.89,3.06-4.89,10.39v5.45c0,7.11,1.45,10.39,4.89,10.39,2.78,0,3.83-1.95,4.34-5.84h7.39c-1.11,8.61-5.06,12.4-11.73,12.4-7.5,0-12.67-5.23-12.67-16.95v-5.45c0-11.84,5.17-16.95,12.67-16.95,6.28,0,10.67,4,11.73,12.39h-7.39Z"/>
      <path d="M245.57,292.3l-6.61-16.01-3.72,6.23v9.78h-7.78v-38.35h7.78v15.95l8.39-15.95h8.89l-8.61,14.23,10.11,24.12h-8.45Z"/>
    </g>
  </g>
</svg>
