<?xml version="1.0" encoding="UTF-8"?>
<svg id="Ebene_2" xmlns="http://www.w3.org/2000/svg" width="41.72cm" height="15.31cm" version="1.1" viewBox="0 0 1182.52 433.95">
  <!-- Generator: Adobe Illustrator 30.5.1, SVG Export Plug-In . SVG Version: 2.1.4 Build 3)  -->
  <defs>
    <style>
      .st0 {
        fill: none;
      }

      .st0, .st1 {
        stroke: #16355b;
        stroke-linecap: round;
        stroke-linejoin: round;
        stroke-width: 5px;
      }

      .st1 {
        fill: #fff;
      }
    </style>
  </defs>
  <path class="st1" d="M482.96,260.07h0c0-7,3.64-12.68,8.12-12.68h68.13c4.48,0,8.12,5.68,8.12,12.68h0"/>
  <path class="st1" d="M727.83,409.62h43.88c9.62,0,17.42-7.8,17.42-17.42v-113.35c0-1.54-.22-3.03-.6-4.46.38-1.41.6-2.88.6-4.4,0-9.39-7.61-17-17-17h-49.97c-6.27,0-11.72,3.4-14.67,8.44h-265.33c-9.62,0-17.42,7.8-17.42,17.42v113.35c0,9.62,7.8,17.42,17.42,17.42h34.81"/>
  <line class="st0" x1="513.16" y1="409.62" x2="691.61" y2="409.62"/>
  <rect class="st0" x="712.29" y="268.38" width="57.43" height="11.09" rx="5.55" ry="5.55"/>
  <path class="st0" d="M604.71,343.73h-143.91c-6.24,0-11.3-5.06-11.3-11.3v-45.45h155.21v56.75Z"/>
  <line class="st0" x1="500.39" y1="342.83" x2="500.39" y2="289.36"/>
  <line class="st0" x1="552.67" y1="342.83" x2="552.67" y2="289.36"/>
  <line class="st0" x1="785.96" y1="286.99" x2="449.49" y2="286.99"/>
  <path class="st0" d="M787.96,357.89h-78.97c-7.58,0-13.73-6.15-13.73-13.73v-57.17"/>
  <path class="st0" d="M424.73,370.79h13.36c2.95,0,5.34,2.39,5.34,5.34v13.36h-18.71v-18.71h0Z"/>
  <path class="st0" d="M426.05,389.84h19.31c4.18,0,7.56,3.39,7.56,7.56v11.14"/>
  <path class="st0" d="M768.53,370.79h18.71v13.36c0,2.95-2.39,5.34-5.34,5.34h-13.36v-18.71h0Z" transform="translate(1555.778 760.2971) rotate(-180)"/>
  <path class="st0" d="M785.93,389.84h-19.31c-4.18,0-7.56,3.39-7.56,7.56v11.14"/>
  <circle class="st1" cx="494.81" cy="400.32" r="20.17"/>
  <circle class="st1" cx="709.43" cy="400.32" r="20.17"/>
  <g>
    <line class="st0" x1="604.71" y1="408.08" x2="604.71" y2="289.36"/>
    <line class="st0" x1="672.7" y1="289.36" x2="672.7" y2="408.08"/>
    <line class="st0" x1="639.7" y1="289.36" x2="639.7" y2="408.08"/>
  </g>
</svg>