<?xml version="1.0" encoding="UTF-8"?>
<svg id="Ebene_1" xmlns="http://www.w3.org/2000/svg" width="33.44" height="38.3" version="1.1" viewBox="0 0 33.44 38.3">
  <!-- Generator: Adobe Illustrator 30.5.1, SVG Export Plug-In . SVG Version: 2.1.4 Build 3)  -->
  <defs>
    <style>
      .st0 {
        fill: #15365a;
      }
    </style>
  </defs>
  <path class="st0" d="M31.57,11.05v-5.69c0-2.96-2.4-5.37-5.37-5.37H7.33C4.37,0,1.97,2.4,1.97,5.37v5.7s-.06,0-.1,0c-1.03,0-1.87.84-1.87,1.87v3.25c0,1.03.84,1.87,1.87,1.87.03,0,.06,0,.1,0v14.61h1.9v3.16c0,1.38,1.12,2.5,2.5,2.5s2.5-1.12,2.5-2.5v-3.16h16.61v3.16c0,1.38,1.12,2.5,2.5,2.5s2.5-1.12,2.5-2.5v-3.16h1.09v-14.6c1.03,0,1.87-.84,1.87-1.87v-3.25c0-1.03-.84-1.87-1.87-1.87ZM7.18,6.06c0-1.1.89-2,2-2h14.81c1.1,0,2,.89,2,2v1.71H7.18v-1.71ZM5.59,10.32h22.35v11.05H5.59v-11.05ZM7.88,29.37c-1.18,0-2.14-.96-2.14-2.14s.96-2.14,2.14-2.14,2.14.96,2.14,2.14-.96,2.14-2.14,2.14ZM23.15,27.24c0-1.18.96-2.14,2.14-2.14s2.14.96,2.14,2.14-.96,2.14-2.14,2.14-2.14-.96-2.14-2.14Z"/>
</svg>