<?xml version="1.0" encoding="UTF-8"?>
<svg xmlns="http://www.w3.org/2000/svg" viewBox="73 -8 100 170" width="100" height="170" role="img" aria-label="Brunnen">
  <!-- Brunnen-Icon aus logo_pabe.svg extrahiert – statisch, ohne Text/Animation -->
  <g fill="#16355b">
    <path d="M97.35,53.08c1.36,0,2.47-1.11,2.47-2.47v-4.48c0-1.36-1.11-2.47-2.47-2.47s-2.47,1.11-2.47,2.47v4.48c0,1.36,1.11,2.47,2.47,2.47Z"/>
    <path d="M97.35,39.74c1.36,0,2.47-1.11,2.47-2.47v-8.87c0-5.9,4.8-10.7,10.7-10.7s10.7,4.8,10.7,10.7v26.33c0,1.36,1.11,2.47,2.47,2.47.08,0,.15,0,.23-.01.07,0,.15.01.23.01,1.36,0,2.47-1.11,2.47-2.47v-26.33c0-5.9,4.8-10.7,10.7-10.7s10.7,4.8,10.7,10.7v8.47c0,1.36,1.11,2.47,2.47,2.47s2.47-1.11,2.47-2.47v-8.47c0-8.62-7.02-15.64-15.64-15.64-5.68,0-10.66,3.04-13.4,7.58-2.74-4.54-7.72-7.58-13.4-7.58-8.62,0-15.64,7.02-15.64,15.64v8.87c0,1.36,1.11,2.47,2.47,2.47Z"/>
    <path d="M75.37,0v156.76h95.64V0h-95.64ZM96.39,74.28c-2.05,0-3.72-1.67-3.72-3.72v-.77c0-2.05,1.67-3.72,3.72-3.72h55.05c2.05,0,3.72,1.67,3.72,3.72v.77c0,2.05-1.67,3.72-3.72,3.72h-55.05ZM146.39,79.22c-.91,10.72-8.83,19.13-18.43,19.13h-7.8c-9.6,0-17.52-8.41-18.43-19.13h44.66ZM120.16,103.29h7.8c1.02,0,2.03-.08,3.02-.22v18.39h-15.26v-18.64c1.44.31,2.92.48,4.44.48ZM138.81,126.4c1.09,0,1.98.89,1.98,1.98v12.65h-35.19v-12.65c0-1.09.89-1.98,1.98-1.98h31.23ZM166.08,4.94v136.08h-20.35v-12.65c0-3.82-3.11-6.92-6.92-6.92h-2.89v-19.72c8.47-3.42,14.68-12.12,15.42-22.52h.1c4.78,0,8.67-3.89,8.67-8.67v-.77c0-4.78-3.89-8.67-8.67-8.67h-55.05c-4.78,0-8.67,3.89-8.67,8.67v.77c0,4.78,3.89,8.67,8.67,8.67h.39c.69,9.8,6.26,18.1,14,21.88v20.35h-3.19c-3.82,0-6.92,3.11-6.92,6.92v12.65h-20.35V4.94h85.76ZM80.32,151.82v-5.85h85.76v5.85h-85.76Z"/>
  </g>
</svg>
